Coordinates
version=1
nRows=8
nColumns=36
inDegrees=yes

Units are S.I. units (second, meters, Newtons, ...)
If the header above contains a line with 'inDegrees', this indicates whether rotational values are in degrees (yes) or radians (no).

endheader
time	pelvis_tilt	pelvis_list	pelvis_rotation	pelvis_tx	pelvis_ty	pelvis_tz	hip_flexion_r	hip_adduction_r	hip_rotation_r	knee_angle_r	knee_angle_r_beta	ankle_angle_r	subtalar_angle_r	mtp_angle_r	hip_flexion_l	hip_adduction_l	hip_rotation_l	knee_angle_l	knee_angle_l_beta	ankle_angle_l	subtalar_angle_l	mtp_angle_l	lumbar_extension	lumbar_bending	lumbar_rotation	arm_flex_r	arm_add_r	arm_rot_r	elbow_flex_r	pro_sup_r	arm_flex_l	arm_add_l	arm_rot_l	elbow_flex_l	pro_sup_l
      1.49000000	    -10.45737717	      1.06543211	      2.79029133	     -0.38580048	      0.51120626	     -0.60452736	     95.12493300	     -5.22612626	      8.63637440	    114.65536458	      2.00111362	     33.15260818	     -1.18924090	     -7.32127647	     92.01084193	     -7.92008852	      0.21179481	    116.33547912	      2.03043715	     34.58731437	      3.01953526	     -7.32127647	    -46.61020904	     -3.60952066	     -5.55308152	     85.95639745	    -26.21957360	     12.17852930	    127.00086629	    107.68398671	     97.02069701	    -26.41108949	     27.93908040	    119.44516386	    103.30380495
      1.50000000	    -10.39684569	      1.15941535	      3.21865658	     -0.38185845	      0.50217900	     -0.60534953	     96.11982770	     -5.64541847	      9.17701869	    116.58893278	      2.03486075	     34.22971527	     -0.39326132	     -7.32706437	     92.80702594	     -7.56486870	      0.45168024	    118.04484216	      2.06027116	     35.90955125	      4.13065042	     -7.32706437	    -47.20349364	     -3.28971584	     -6.32036752	     88.15586061	    -24.92616529	     12.76486349	    126.92703943	    107.74151627	     99.74193170	    -25.59381008	     28.64287263	    119.41705726	    103.54820570
      1.51000000	    -10.48942794	      1.12257234	      3.58784424	     -0.37787712	      0.49401133	     -0.60598660	     97.10127968	     -5.92679322	      9.49677614	    118.24740741	      2.06380659	     34.58335697	     -0.57105454	     -7.32789556	     93.69558515	     -7.31129238	      0.67071302	    119.54999849	      2.08654109	     36.31044781	      4.03295123	     -7.32789556	    -47.44470502	     -2.93243726	     -6.61267143	     89.81403146	    -23.90863516	     12.79519363	    127.10207646	    107.77441579	    101.55137763	    -24.08593962	     28.32407299	    119.26250753	    103.53772899
      1.52000000	    -10.22686280	      1.02916784	      3.93225522	     -0.37402888	      0.48792869	     -0.60641339	     97.34220224	     -6.18354927	      9.68927710	    119.62273824	      2.08781064	     35.33569426	     -0.65749513	     -7.32975987	     93.95455316	     -7.09984861	      0.89559779	    120.78369301	      2.10807313	     37.16595940	      4.01065192	     -7.32975987	    -48.12409160	     -2.57217930	     -6.77733345	     91.47561989	    -23.09966804	     12.91217758	    127.51279558	    107.87829151	    103.33479268	    -22.56939054	     28.02747187	    119.01391031	    103.54501078
      1.53000000	    -10.10318570	      1.03990421	      4.13042496	     -0.37032013	      0.48268643	     -0.60650150	     97.58815344	     -6.21559189	     10.01149868	    120.80936735	      2.10852123	     36.14549975	     -0.49512349	     -7.33275028	     94.17436717	     -7.01674119	      1.05893670	    121.87802259	      2.12717278	     38.02585370	      4.29500681	     -7.33275028	    -48.62616648	     -2.49403404	     -7.09445244	     92.84042022	    -22.39344970	     12.97550403	    127.91918048	    108.02053299	    105.12879323	    -21.34872089	     28.00244317	    118.94385428	    103.58568009
      1.54000000	    -10.37761053	      1.10453314	      4.40232326	     -0.36675288	      0.47763257	     -0.60679124	     98.22997642	     -6.35184781	     10.41738358	    121.84505195	      2.12659733	     36.52113683	     -0.57256479	     -7.33362692	     94.74833087	     -6.77386914	      1.14848220	    122.79253364	      2.14313401	     38.40272624	      4.31854123	     -7.33362692	    -48.58464068	     -2.40001493	     -7.57027935	     94.00828895	    -21.60355614	     13.04136507	    128.25196785	    108.06921419	    106.74661362	    -20.29061724	     27.90320601	    119.01389641	    103.59344679
      1.55000000	    -10.47862401	      1.34906600	      4.88366870	     -0.36293591	      0.47411221	     -0.60714442	     98.54605778	     -6.73144304	     11.05941144	    122.87027223	      2.14449080	     37.36012438	     -0.13926756	     -7.33727227	     94.85007654	     -6.34099097	      0.98121610	    123.46828185	      2.15492804	     39.28216146	      4.67220472	     -7.33727227	    -48.69205555	     -2.35170613	     -8.48239342	     94.99047517	    -20.73233663	     13.24297368	    128.63643452	    108.14061678	    108.49221094	    -19.50269035	     28.48143998	    119.21321569	    103.71139105
      1.56000000	    -10.63301681	      1.18272594	      5.33067754	     -0.35887419	      0.47193855	     -0.60721992	     98.58046301	     -7.01205844	     11.12919153	    123.62581507	      2.15767751	     37.83369006	     -0.17107430	     -7.33874826	     95.03083815	     -6.02128099	      1.24899625	    124.00972722	      2.16437804	     39.61856805	      4.75710831	     -7.33874826	    -48.60808289	     -1.96320757	     -8.92300634	     96.03106723	    -19.96231602	     13.53742931	    128.92409756	    108.17180810	    109.83856599	    -18.54230796	     28.54574061	    119.40485387	    103.78871976
